<svg xmlns="http://www.w3.org/2000/svg" width="353.393" height="96.249" viewBox="0 0 353.393 96.249"><g transform="translate(0 0)"><path d="M87.81,10.924,77.279.415a1.4,1.4,0,0,0-1-.415H2.125A2.125,2.125,0,0,0,0,2.125v92a2.125,2.125,0,0,0,2.125,2.125H76.279a1.426,1.426,0,0,0,1-.415L87.81,85.3a1.4,1.4,0,0,0,.415-1V56.064a1.42,1.42,0,0,0-.415-1.005l-5.932-5.937a1.4,1.4,0,0,1,0-2l5.932-5.937a1.4,1.4,0,0,0,.415-1V11.951a1.42,1.42,0,0,0-.415-1.027ZM68.43,78.2H19.817A1.415,1.415,0,0,1,18.4,76.787v-35.7L35.471,52.224,30.239,69.763a.566.566,0,0,0,.879.617L45.025,59.866,58.948,70.391a.546.546,0,0,0,.885-.612L55.66,55.474H68.146a1.7,1.7,0,0,1,1.7,1.7V76.787A1.415,1.415,0,0,1,68.43,78.2Zm-.284-37.438H50.76l-5.2-15.584a.562.562,0,0,0-1.071,0L39.295,40.764H18.38v-21.3a1.415,1.415,0,0,1,1.415-1.437H68.146a1.7,1.7,0,0,1,1.7,1.7h0V39.066A1.7,1.7,0,0,1,68.146,40.764Z" transform="translate(0 0)" fill="#eb0000"/><path d="M233.276,89.067c8.739,0,11.771-4.484,11.771-11.667V72.774c0-4.626-1.841-7.592-6.243-8.9,3.878-1.453,5.588-4.49,5.588-9.532V50.477c0-4.37-1.447-7.6-4.916-9.324a16.561,16.561,0,0,0-7.3-1.311H220.26V89.067Zm-1.245-43.7c4.206,0,6.243,1.863,6.243,5.73v3.108c0,4.916-1.579,6.9-6.505,6.9h-5.391V45.365Zm-.131,21.4c4.916,0,6.773,2.076,6.773,6.424v3.824c0,4.763-1.579,6.282-6.249,6.282h-6.047V66.765ZM270.294,83H254.71V67.044h12.929V61.036H254.71V45.714h14.923V39.848h-21.04V89.073h21.7V82.994Zm15.234-30.173.59-7.177.6,7.177,4.413,20.986h-9.8Zm8.81,36.247h6.249L289.209,39.842h-6.243L272.009,89.067h6.249l1.813-9.16h12.361Zm25.853-43.217V39.848H297.047v6.008h8.483V89.073h6.178V45.851Zm14.6,43.976c8.417,0,12.754-4.768,12.754-12.563V73.446a12.08,12.08,0,0,0-5.063-10.427,52.9,52.9,0,0,0-4.474-2.829c-2.562-1.382-4.916-2.693-6.309-4.419a4.6,4.6,0,0,1-1.054-3.174V51.231c0-2.971,1.092-4.916,3.944-4.916s4.015,1.447,4.015,4.692v4.867h8.346V50.466c0-7.177-3.878-11.6-12.3-11.6s-12.481,4.632-12.481,12.3v2.07a11.888,11.888,0,0,0,5,10.285,30.044,30.044,0,0,0,4.4,2.835c2.627,1.376,5.063,2.731,6.445,4.621a5.84,5.84,0,0,1,1.049,3.523v2.556c0,2.764-1.049,4.763-4.14,4.763-3.419,0-4.474-1.934-4.474-5.036V70.288h-8.81V76.92c0,8.352,3.414,12.907,13.147,12.907Zm37.547-42.119v-8.15H348.272v8.144h7.762V89.062h8.483V47.713h7.822Zm11.132,9.739.546-6.9.546,6.9,3.086,16.5h-7.1Zm6.97,31.615h8.483l-10.717-49.5h-8.483l-10.455,49.5h8.483l1.311-7.314h10Zm21.947-41.933c3.419,0,4.73,1.453,4.73,4.7v5.544c0,3.316-1.311,4.916-4.665,4.916h-4.015V47.162h3.949Zm-.4,22.99c3.485,0,4.479,1.382,4.479,4.916V85.752c0,1.589.262,2.829.852,3.31h8.942a4.272,4.272,0,0,1-1.251-3.245V74.636c0-4.916-1.092-7.456-4.534-8.63,3.223-1.311,5-3.933,5-8.7V51.373c0-8.193-3.681-11.8-12.563-11.8H400.228v49.5h8.193V70.152h3.55Zm28.6,19.664c8.417,0,12.754-4.768,12.754-12.563V73.4a12.08,12.08,0,0,0-5.063-10.427c-1.513-1.032-2.96-2-4.474-2.829-2.567-1.382-4.916-2.693-6.314-4.419a4.594,4.594,0,0,1-1.038-3.13V51.231c0-2.971,1.092-4.916,3.944-4.916s4.009,1.447,4.009,4.692v4.867h8.352V50.466c0-7.177-3.878-11.6-12.3-11.6S427.97,43.5,427.97,51.16v2.07a11.888,11.888,0,0,0,5,10.285,30.04,30.04,0,0,0,4.4,2.835c2.633,1.376,5.063,2.731,6.445,4.621a5.84,5.84,0,0,1,1.049,3.523v2.556c0,2.764-1.049,4.763-4.14,4.763-3.419,0-4.468-1.934-4.468-5.036V70.283h-8.816v6.631c0,8.357,3.425,12.913,13.158,12.913Z" transform="translate(-99.95 -17.638)" fill="#fff"/></g></svg>