<?xml version="1.0" standalone="no"?>
<!DOCTYPE svg PUBLIC "-//W3C//DTD SVG 20010904//EN"
 "http://www.w3.org/TR/2001/REC-SVG-20010904/DTD/svg10.dtd">
<svg version="1.0" xmlns="http://www.w3.org/2000/svg"
 width="16.000000pt" height="16.000000pt" viewBox="0 0 16.000000 16.000000"
 preserveAspectRatio="xMidYMid meet">

<g transform="translate(0.000000,16.000000) scale(0.100000,-0.100000)"
fill="#000000" stroke="none">
<path d="M44 144 c-18 -15 -18 -15 3 -5 30 15 49 14 67 -5 22 -21 20 -34 -4
-34 -14 0 -20 -6 -18 -17 2 -12 -3 -18 -15 -17 -10 1 -16 -3 -14 -9 6 -20 25
-19 46 2 12 12 21 16 21 10 0 -8 5 -8 15 1 22 18 19 32 -16 63 -35 31 -57 34
-85 11z"/>
<path d="M46 118 c-9 -12 -16 -17 -16 -10 0 17 -19 15 -26 -3 -9 -21 16 -51
27 -33 7 10 9 10 9 -2 1 -8 7 0 15 18 8 17 19 32 25 32 5 0 10 5 10 10 0 18
-29 10 -44 -12z"/>
</g>
</svg>
